<svg width="20" height="20" viewBox="0 0 24 25" fill="none" xmlns="http://www.w3.org/2000/svg">
<path d="M11.9937 14.1371V24M18.5954 20.7124C19.6335 20.7132 20.6386 20.3484 21.4328 19.6826C22.2271 19.0168 22.7595 18.0928 22.936 17.0738C23.1124 16.0548 22.9215 15.0065 22.397 14.1142C21.8725 13.2219 21.0482 12.5429 20.0698 12.1973C20.5436 11.4942 20.8028 10.6695 20.8161 9.82282C20.8293 8.97613 20.5961 8.14374 20.1446 7.42625C19.693 6.70876 19.0425 6.13689 18.2716 5.77976C17.5008 5.42263 16.6425 5.29553 15.8007 5.41382C15.8843 4.86755 15.8485 4.30973 15.6956 3.77855C15.5427 3.24736 15.2763 2.75535 14.9148 2.3362C14.5533 1.91705 14.1051 1.58064 13.6009 1.35002C13.0968 1.1194 12.5485 1 11.9937 1C11.4389 1 10.8907 1.1194 10.3865 1.35002C9.88232 1.58064 9.43413 1.91705 9.07261 2.3362C8.71108 2.75535 8.44476 3.24736 8.29186 3.77855C8.13896 4.30973 8.10311 4.86755 8.18675 5.41382C7.35012 5.30724 6.50036 5.44234 5.73863 5.80305C4.9769 6.16375 4.33527 6.73487 3.89012 7.44842C3.44498 8.16196 3.21506 8.98788 3.22775 9.82786C3.24043 10.6678 3.49518 11.4865 3.96168 12.1864C2.97894 12.5251 2.14838 13.1996 1.61727 14.0901C1.08616 14.9806 0.888801 16.0297 1.06019 17.0513C1.23159 18.0729 1.76065 19.0011 2.55359 19.6712C3.34653 20.3414 4.35211 20.7102 5.39204 20.7124H18.5954Z" stroke="#ABACB2" stroke-width="2" stroke-linecap="round" stroke-linejoin="round"/>
</svg>
