<svg width="20" height="20" viewBox="0 0 24 24" fill="none" xmlns="http://www.w3.org/2000/svg">
<path d="M1 21H22.9721M5.78992 16.0286L3.19721 15.5963L1 11.2734L2.20847 10.679C2.51515 10.527 2.85379 10.4478 3.19721 10.4478C3.54063 10.4478 3.87927 10.527 4.18596 10.679L4.37272 10.7871C4.6794 10.9391 5.01804 11.0183 5.36146 11.0183C5.70488 11.0183 6.04352 10.9391 6.35021 10.7871L7.59163 10.1927L4.29582 3.70831L5.28456 3.22198C5.65004 3.04511 6.0583 2.97166 6.46375 3.00983C6.86921 3.048 7.2559 3.19628 7.58065 3.43813L11.997 6.68032C12.3229 6.92425 12.7116 7.07375 13.1193 7.11194C13.5269 7.15013 13.9373 7.0755 14.3041 6.89646L18.9073 4.67016C19.4952 4.37744 20.1732 4.31189 20.8079 4.48643L21.8735 4.78904C22.0937 4.84919 22.2975 4.95685 22.47 5.10418C22.6426 5.25152 22.7797 5.43484 22.8712 5.64081C22.9627 5.84678 23.0065 6.07022 22.9992 6.2949C22.992 6.51958 22.9339 6.73985 22.8293 6.93969L22.4118 7.76105C22.1591 8.25819 21.7527 8.66886 21.2363 8.92824L7.13022 15.8125C6.71543 16.0146 6.24636 16.0827 5.78992 16.007V16.0286Z" stroke="#ABACB2" stroke-width="2" stroke-linecap="round" stroke-linejoin="round"/>
</svg>
